<?xml version="1.0"?><svg xmlns="http://www.w3.org/2000/svg"  viewBox="0 0 128 128" width="128px" height="128px">    <path d="M 71 1 C 60 1 51 10 51 21 C 51 32 60 41 71 41 C 82 41 91 32 91 21 C 91 10 82 1 71 1 z M 71 7 C 78.7 7 85 13.3 85 21 C 85 28.7 78.7 35 71 35 C 63.3 35 57 28.7 57 21 C 57 13.3 63.3 7 71 7 z M 39.337891 29.011719 C 38.550391 28.999219 37.749609 29.300391 37.099609 29.900391 C 21.699609 45.300391 18.599219 68.600781 29.199219 87.300781 L 8.9003906 107.69922 C 8.3003906 108.29922 8 109.00078 8 109.80078 C 8 110.60078 8.3003906 111.40039 8.9003906 111.90039 L 23 126.09961 C 23.6 126.69961 24.299609 127 25.099609 127 C 25.899609 127 26.699219 126.69961 27.199219 126.09961 L 47.599609 105.69922 C 66.299609 116.29922 89.6 113.20078 105 97.800781 C 123.7 79.100781 123.7 48.600391 105 29.900391 C 103.7 28.600391 101.50039 28.800391 100.40039 30.400391 C 99.600391 31.600391 99.900391 33.200781 100.90039 34.300781 C 109.60039 43.000781 113.9 54.900391 113 67.400391 C 112.3 76.300391 108.69922 84.899609 102.69922 91.599609 C 94.599219 100.79961 83.4 105.7 72 106 C 71.2 106 70.400781 105.69961 69.800781 105.09961 L 29.900391 65.199219 C 29.300391 64.599219 29 63.9 29 63 C 29.2 52.5 33.399219 42.300781 41.199219 34.300781 C 42.399219 33.100781 42.6 31.3 41.5 30 C 40.9 29.35 40.125391 29.024219 39.337891 29.011719 z"/></svg>